<svg xmlns="http://www.w3.org/2000/svg" viewBox="0 0 1326.52 1333.33" shape-rendering="geometricPrecision" text-rendering="geometricPrecision" image-rendering="optimizeQuality" fill-rule="evenodd" clip-rule="evenodd"><path d="M801.48 378.55c-16.33-8.77-32.84-22.46-50.86-40.47-3.59-3.59-8.34-5.38-13.11-5.38-4.8 0-9.56 1.79-13.14 5.34l.04.04L74.02 988.47c-46.94 46.94-41.79 112.39-10.63 170.36 12.43 23.11 28.89 45.04 47.88 64.28 18.93 19.18 40.36 35.67 62.76 47.97 53.03 29.12 111.35 34.11 152.27-6.81l662.15-662.15c3.59-3.59 5.39-8.35 5.39-13.11 0-4.81-1.77-9.58-5.31-13.11h-.08c-18.89-18.89-33.27-35.89-42.28-52.77-64.86-13.87-130.93-77.17-144.68-144.58zm-91.63 355.16c7.63-7.62 19.99-7.62 27.61 0 7.63 7.63 7.63 19.99 0 27.62l-390.14 390.14c-7.63 7.63-19.99 7.63-27.61 0-7.63-7.62-7.63-19.99 0-27.61l390.14-390.14zM1219.92 7.58l99.02 99.02a25.855 25.855 0 017.58 18.3c0 6.63-2.54 13.27-7.58 18.31l-95.52 95.52-.09.01c-5.06 5.04-11.66 7.57-18.22 7.57-4.09 0-8.2-.98-11.94-2.94-17.04 16.7-36.45 35.2-56.28 54.09-51.02 48.62-104.96 100.03-143.98 146.56-15.77 18.81-20.99 33.68-17.65 47.65 3.86 16.14 18.3 34.13 40.79 56.62l-.04.04a57.458 57.458 0 0116.86 40.69c0 14.74-5.61 29.51-16.82 40.72L353.9 1291.89c-55.42 55.43-131.11 50.46-198.65 13.37-25.64-14.09-50.14-32.93-71.76-54.83-21.56-21.85-40.28-46.79-54.44-73.12-38.84-72.26-44.06-155.05 17.34-216.44l650.39-650.39h.08c11.21-11.21 25.94-16.82 40.64-16.82 14.74 0 29.51 5.61 40.72 16.82 21.95 21.95 39.89 35.71 56.19 39.46 14.25 3.28 29.19-1.66 47.38-16.28 45.73-36.74 99.91-93.83 149.8-146.41 18.19-19.17 35.84-37.77 51.54-53.85a25.92 25.92 0 01-2.93-11.98c0-6.61 2.52-13.25 7.57-18.3l95.52-95.52h.08c5.06-5.04 11.67-7.58 18.23-7.58 6.63 0 13.27 2.54 18.31 7.58z" fill-rule="nonzero"/></svg>